<?xml version="1.0" encoding="utf-8"?>
<!-- Generator: Adobe Illustrator 26.2.1, SVG Export Plug-In . SVG Version: 6.00 Build 0)  -->
<svg version="1.1" id="Layer_1" xmlns="http://www.w3.org/2000/svg" xmlns:xlink="http://www.w3.org/1999/xlink" x="0px" y="0px"
	 viewBox="0 0 182 182" style="enable-background:new 0 0 182 182;" xml:space="preserve">
<style type="text/css">
	.st0{fill:#00DDB3;enable-background:new    ;}
</style>
<path class="st0" d="M91,0L91,0C40.7,0,0,40.7,0,91l0,0c0,50.2,40.7,91,91,91l0,0c50.2,0,91-40.7,91-91l0,0C181.9,40.7,141.2,0,91,0
	z M133.6,63.2c-1.3,1.3-3.2,2.1-5.1,2.1c-15.2,0-21,9.2-28.9,24.4l-4.9,9.2C87.4,113.2,78.1,131,53.2,131c-0.9,0-1.9-0.2-2.7-0.5
	c-0.9-0.4-1.7-0.9-2.3-1.6c-0.7-0.7-1.2-1.5-1.6-2.3c-0.4-0.9-0.5-1.8-0.5-2.7c0-1.9,0.8-3.7,2.1-5.1c1.3-1.3,3.2-2.1,5.1-2.1
	c15.2,0,21-9.2,28.9-24.4l4.8-9.2C94.3,68.8,103.6,51,128.5,51l0,0c1.9,0,3.7,0.8,5.1,2.1c1.3,1.3,2.1,3.2,2.1,5.1
	C135.7,60.1,135,61.9,133.6,63.2z"/>
</svg>
